{"title":"Ninja(2009)1080p BDRip In[Hindi-Eng(640kbps)]-DGrea8","uid":8421599,"size":2239007921,"categoryP":"video","categoryS":"hd___movies","magnet":"?xt=urn:btih:a9e9ee0976376fda6731c79d5df692273bd5c165&amp;dn=Ninja%282009%291080p+BDRip+In%5BHindi-Eng%28640kbps%29%5D-DGrea8&amp;tr=udp%3A%2F%2Ftracker.openbittorrent.com%3A80&amp;tr=udp%3A%2F%2Fopen.demonii.com%3A1337&amp;tr=udp%3A%2F%2Ftracker.coppersurfer.tk%3A6969&amp;tr=udp%3A%2F%2Fexodus.desync.com%3A6969","seeders":0,"leechers":0,"uploader":"DGrea8","files":-1,"time":1367209005,"description":"             Ninja(2009)1080p BDRip In[Hindi-Eng(640kbps)]-DGrea8 \n\n\nSummary:-\n\n\nCasey, a Westerner studies Ninjitsu in Japan. And in their Master's possession is an Ninja armor with some legendary weapons which goes to a deserving person. Masazuka, another student thinks he is that person but the Master has an affinity for Casey. One day Masazuka attacks Casey and Casey defends himself scarring Masazuka. Masazuka would be banished. He would then become an assassin, who works for a group criminals called The Ring. Masazuka would return demanding the armor but the Master still refuses. The Master tells Casey and his daughter, Namiko to take the armor to America were it can be kept from Masazuka. After killing the Master, Masazuka follows them to Anmerica and tries to get it. Casey is erroneously arrested for crimes committed by Masazuka. He eventually abducts Namiko and demands turn the armor to him. Casey tells him if he wants he'll have to fight him for it.\n\n\nCast:-\n\nScott Adkins\t ...\tCasey Bowman\nTsuyoshi Ihara\t ...\tMasazuka\nMika Hijii\t ...\tNamiko Takeda\nTodd Jensen\t ...\tDet. Traxler\nTogo Igawa\t ...\tSensei Takeda\nGarrick Hagon\t ...\tProfessor Garrison\nMiles Anderson\t ...\tTemple\nValentin Ganev\t ...\tKlimitov\nAtanas Srebrev\t ...\tDetective Vukovich\nFumio Demura\t ...\tShihan Dai\nMasaki Onishi\t ...\tRyuu\nNikolai Sotirov\t ...\tAdamovich\nKenji Motomiya\t ...\tAkira\nAsen Asenov\t ...\tBig armed man\nIvailo Dimitrov\t ...\tBodyguard\n\n\n\nVideo &amp; Audio Info.:-\n\nDirector:Isaac Florentine\nWriters: Boaz Davidson (story), Boaz Davidson\nStars: Scott Adkins, Tsuyoshi Ihara, Mika Hijii\nRelease Date:22 October 2009 (Malaysia)\nFilming Locations: New Boyana Film Studios, Sofia, Bulgaria\nGenres: Action | Crime | Drama | Thriller\n\nBox Office\nBudget: $10,000,000 (estimated)\n\nVideo\nID : 1\nFormat : AVC\nFormat/Info : Advanced Video Codec\nFormat profile : &lt;a class=&quot;__cf_email__&quot; href=&quot;/cdn-cgi/l/email-protection&quot; data-cfemail=&quot;b5f8d4dcdbf5f9819b85&quot;&gt;[email&amp;#160;protected]&lt;/a&gt;&lt;script data-cfhash='f9e31' type=&quot;text/javascript&quot;&gt;\n/* &lt;![CDATA[ */!function(){try{var t=&quot;currentScript&quot;in document?document.currentScript:function(){for(var t=document.getElementsByTagName(&quot;script&quot;),e=t.length;e--;)if(t[e].getAttribute(&quot;data-cfhash&quot;))return t[e]}();if(t&amp;&amp;t.previousSibling){var e,r,n,i,c=t.previousSibling,a=c.getAttribute(&quot;data-cfemail&quot;);if(a){for(e=&quot;&quot;,r=parseInt(a.substr(0,2),16),n=2;a.length-n;n+=2)i=parseInt(a.substr(n,2),16)^r,e+=String.fromCharCode(i);e=document.createTextNode(e),c.parentNode.replaceChild(e,c)}t.parentNode.removeChild(t);}}catch(u){}}()/* ]]&gt; */&lt;/script&gt;\nFormat settings, CABAC : Yes\nFormat settings, ReFrames : 4 frames\nFormat settings, GOP : M=4, N=16\nMuxing mode : Header stripping\nCodec ID : V_MPEG4/ISO/AVC\nDuration : 1h 26mn\nBit rate : 2 585 Kbps\nWidth : 1 920 pixels\nHeight : 798 pixels\nDisplay aspect ratio : 2.40:1\nFrame rate mode : Variable\nFrame rate : 23.976 fps\nColor space : YUV\nChroma subsampling : 4:2:0\nBit depth : 8 bits\nScan type : Progressive\nBits/(Pixel*Frame) : 0.070\nStream size : 1.57 GiB (76%)\n\n\nAudio #1\nID : 2\nFormat : AC-3\nFormat/Info : Audio Coding 3\nMode extension : CM (complete main)\nMuxing mode : Header stripping\nCodec ID : A_AC3\nDuration : 1h 26mn\nBit rate mode : Constant\nBit rate : 640 Kbps\nChannel(s) : 6 channels\nChannel positions : Front: L C R, Side: L R, LFE\nSampling rate : 48.0 KHz\nBit depth : 16 bits\nCompression mode : Lossy\nStream size : 397 MiB (19%)\nLanguage : English\n\nAudio #2\nID : 3\nDuration : 1h 26mn\nBit rate mode : Constant\nBit rate : 128 Kbps\nChannel(s) : 2 channels\nChannel positions : Front: L R\nSampling rate : 48.0 KHz\nBit depth : 16 bits\nCompression mode : Lossy\nLanguage : Hindi\n\n\n\nSubtitle Languages : English\n\n\n\n\nScreen Shoots:-\n\n   &lt;a href=&quot;\nhttp://www.shotpix.com/images/57645219753440019803.jpg&quot; rel=&quot;nofollow&quot; target=&quot;_NEW&quot;&gt;\nhttp://www.shotpix.com/images/57645219753440019803.jpg&lt;/a&gt;\n &lt;a href=&quot;\nhttp://www.shotpix.com/images/76162060131452972427.jpg&quot; rel=&quot;nofollow&quot; target=&quot;_NEW&quot;&gt;\nhttp://www.shotpix.com/images/76162060131452972427.jpg&lt;/a&gt;\n &lt;a href=&quot;\nhttp://www.shotpix.com/images/51931478601763683325.jpg&quot; rel=&quot;nofollow&quot; target=&quot;_NEW&quot;&gt;\nhttp://www.shotpix.com/images/51931478601763683325.jpg&lt;/a&gt;\n &lt;a href=&quot;\nhttp://www.shotpix.com/images/99885214484177902562.jpg&quot; rel=&quot;nofollow&quot; target=&quot;_NEW&quot;&gt;\nhttp://www.shotpix.com/images/99885214484177902562.jpg&lt;/a&gt;\n &lt;a href=&quot;\nhttp://www.shotpix.com/images/23780606858027482133.jpg&quot; rel=&quot;nofollow&quot; target=&quot;_NEW&quot;&gt;\nhttp://www.shotpix.com/images/23780606858027482133.jpg&lt;/a&gt;\n\n\nNote:--\n\n Check The Sample Video In This Torrent\t\t","torrent":{"xt":"urn:btih:a9e9ee0976376fda6731c79d5df692273bd5c165","amp;dn":"Ninja%282009%291080p+BDRip+In%5BHindi-Eng%28640kbps%29%5D-DGrea8","amp;tr":["udp%3A%2F%2Ftracker.openbittorrent.com%3A80","udp%3A%2F%2Fopen.demonii.com%3A1337","udp%3A%2F%2Ftracker.coppersurfer.tk%3A6969","udp%3A%2F%2Fexodus.desync.com%3A6969"],"infoHash":"a9e9ee0976376fda6731c79d5df692273bd5c165","infoHashBuffer":{"type":"Buffer","data":[169,233,238,9,118,55,111,218,103,49,199,157,93,246,146,39,59,213,193,101]},"announce":[],"urlList":[]}}